<svg width="87" height="23" viewBox="0 0 87 23" fill="none" xmlns="http://www.w3.org/2000/svg">
<path d="M0.5 10C0.5 4.7533 4.7533 0.5 10 0.5L77 0.5C82.2467 0.5 86.5 4.75329 86.5 10V13C86.5 18.2467 82.2467 22.5 77 22.5L10 22.5C4.7533 22.5 0.5 18.2467 0.5 13L0.5 10Z" fill="#FF5A00" fill-opacity="0.25" stroke="#FF5F08"/>
<path d="M21.1838 13.1729V10.0929C21.1838 8.69295 21.8838 7.99295 23.2838 7.99295H26.0278L26.5878 8.41295V8.97295H23.2838C22.6305 8.97295 22.3038 9.29962 22.3038 9.95295V13.3129C22.3038 13.9663 22.6305 14.2929 23.2838 14.2929H26.5878V14.8529L26.0278 15.2729H23.2838C21.8838 15.2729 21.1838 14.5729 21.1838 13.1729ZM28.3505 15.2729V4.91295L29.4705 4.91295V7.99295H32.2705C33.6705 7.99295 34.3705 8.69295 34.3705 10.0929V15.2729H33.2505V9.95295C33.2505 9.29962 32.9238 8.97295 32.2705 8.97295H29.4705V15.2729H28.3505ZM36.4416 13.1729V10.0929C36.4416 8.69295 37.1416 7.99295 38.5416 7.99295H40.5016C41.9016 7.99295 42.6016 8.69295 42.6016 10.0929V13.1729C42.6016 14.5729 41.9016 15.2729 40.5016 15.2729H38.5416C37.1416 15.2729 36.4416 14.5729 36.4416 13.1729ZM37.5616 13.3129C37.5616 13.9663 37.8883 14.2929 38.5416 14.2929H40.5016C41.1549 14.2929 41.4816 13.9663 41.4816 13.3129V9.95295C41.4816 9.29962 41.1549 8.97295 40.5016 8.97295L38.5416 8.97295C37.8883 8.97295 37.5616 9.29962 37.5616 9.95295V13.3129ZM44.6174 13.1729V10.0929C44.6174 8.69295 45.3174 7.99295 46.7174 7.99295H48.6774C50.0774 7.99295 50.7774 8.69295 50.7774 10.0929V13.1729C50.7774 14.5729 50.0774 15.2729 48.6774 15.2729H46.7174C45.3174 15.2729 44.6174 14.5729 44.6174 13.1729ZM45.7374 13.3129C45.7374 13.9663 46.0641 14.2929 46.7174 14.2929H48.6774C49.3307 14.2929 49.6574 13.9663 49.6574 13.3129V9.95295C49.6574 9.29962 49.3307 8.97295 48.6774 8.97295H46.7174C46.0641 8.97295 45.7374 9.29962 45.7374 9.95295V13.3129ZM52.6252 14.8529V14.2929H55.8592C56.5032 14.2929 56.8252 13.9663 56.8252 13.3129C56.8252 12.6503 56.5685 12.2769 56.0552 12.1929L54.3892 11.9129C53.2132 11.7169 52.6252 11.0776 52.6252 9.99495C52.6252 8.66028 53.3252 7.99295 54.7252 7.99295H57.0632L57.6232 8.41295V8.97295H54.7112C54.0578 8.97295 53.7312 9.29962 53.7312 9.95295C53.7312 10.5409 54.0065 10.8816 54.5572 10.9749L56.2232 11.2549C57.3805 11.4416 57.9592 12.1089 57.9592 13.2569C57.9592 14.6009 57.2498 15.2729 55.8312 15.2729H53.1852L52.6252 14.8529ZM59.7932 13.1729V10.0929C59.7932 8.69295 60.4932 7.99295 61.8932 7.99295H63.7132C65.1132 7.99295 65.8132 8.69295 65.8132 10.0929V12.0669H60.9132V13.3129C60.9132 13.9663 61.2398 14.2929 61.8932 14.2929H65.5332V14.8529L64.9732 15.2729H61.8932C60.4932 15.2729 59.7932 14.5729 59.7932 13.1729ZM60.9132 11.1569H64.6932V9.95295C64.6932 9.29962 64.3665 8.97295 63.7132 8.97295L61.8932 8.97295C61.2398 8.97295 60.9132 9.29962 60.9132 9.95295V11.1569Z" fill="#FF5F08"/>
</svg>
