<svg width="196" height="19" viewBox="0 0 196 19" fill="none" xmlns="http://www.w3.org/2000/svg">
<path d="M46.44 14V2.96H50.76C53.4267 2.96 54.76 4.29333 54.76 6.96V10C54.76 12.6667 53.4267 14 50.76 14H46.44ZM47.784 12.784H50.84C52.5573 12.784 53.416 11.9253 53.416 10.208V6.752C53.416 5.03467 52.5573 4.176 50.84 4.176H47.784V12.784ZM57.091 4.128V2.624H58.499V4.128H57.091ZM57.155 14V5.68H58.435V14H57.155ZM60.6788 13.52V12.88H64.3748C65.1108 12.88 65.4788 12.5067 65.4788 11.76C65.4788 11.0027 65.1854 10.576 64.5988 10.48L62.6948 10.16C61.3508 9.936 60.6788 9.20533 60.6788 7.968C60.6788 6.44267 61.4788 5.68 63.0788 5.68H65.7508L66.3908 6.16V6.8H63.0628C62.3161 6.8 61.9428 7.17333 61.9428 7.92C61.9428 8.592 62.2574 8.98133 62.8868 9.088L64.7908 9.408C66.1134 9.62133 66.7748 10.384 66.7748 11.696C66.7748 13.232 65.9641 14 64.3428 14H61.3188L60.6788 13.52ZM68.8708 11.6V8.08C68.8708 6.48 69.6708 5.68 71.2708 5.68H74.4068L75.0468 6.16V6.8H71.2708C70.5241 6.8 70.1508 7.17333 70.1508 7.92V11.76C70.1508 12.5067 70.5241 12.88 71.2708 12.88H75.0468V13.52L74.4068 14H71.2708C69.6708 14 68.8708 13.2 68.8708 11.6ZM76.9333 11.6V8.08C76.9333 6.48 77.7333 5.68 79.3333 5.68H81.5733C83.1733 5.68 83.9733 6.48 83.9733 8.08V11.6C83.9733 13.2 83.1733 14 81.5733 14H79.3333C77.7333 14 76.9333 13.2 76.9333 11.6ZM78.2133 11.76C78.2133 12.5067 78.5866 12.88 79.3333 12.88H81.5733C82.3199 12.88 82.6933 12.5067 82.6933 11.76V7.92C82.6933 7.17333 82.3199 6.8 81.5733 6.8H79.3333C78.5866 6.8 78.2133 7.17333 78.2133 7.92V11.76ZM86.341 14V6.64C86.7143 6 87.4077 5.68 88.421 5.68H90.021L90.661 6.16V6.8H88.597C88.149 6.8 87.8237 6.92267 87.621 7.168V14H86.341ZM92.2301 11.6V8.08C92.2301 6.48 93.0301 5.68 94.6301 5.68H97.8301V2.16H99.1101V14H94.6301C93.0301 14 92.2301 13.2 92.2301 11.6ZM93.5101 11.76C93.5101 12.5067 93.8835 12.88 94.6301 12.88H97.8301V6.8H94.6301C93.8835 6.8 93.5101 7.17333 93.5101 7.92V11.76ZM105.514 11.552V5.408C105.514 3.776 106.33 2.96 107.962 2.96H112.474L113.194 3.52V4.176H107.946C107.221 4.176 106.858 4.53867 106.858 5.264V11.696C106.858 12.4213 107.221 12.784 107.946 12.784H113.194V13.44L112.474 14H107.962C106.33 14 105.514 13.184 105.514 11.552ZM115.152 11.6V8.08C115.152 6.48 115.952 5.68 117.552 5.68H119.792C121.392 5.68 122.192 6.48 122.192 8.08V11.6C122.192 13.2 121.392 14 119.792 14H117.552C115.952 14 115.152 13.2 115.152 11.6ZM116.432 11.76C116.432 12.5067 116.805 12.88 117.552 12.88H119.792C120.539 12.88 120.912 12.5067 120.912 11.76V7.92C120.912 7.17333 120.539 6.8 119.792 6.8H117.552C116.805 6.8 116.432 7.17333 116.432 7.92V11.76ZM124.624 14V5.68H134.064C135.664 5.68 136.464 6.48 136.464 8.08V14H135.184V7.92C135.184 7.17333 134.81 6.8 134.064 6.8H131.184V14H129.904V6.8H125.904V14H124.624ZM138.968 14V5.68H148.408C150.008 5.68 150.808 6.48 150.808 8.08V14H149.528V7.92C149.528 7.17333 149.154 6.8 148.408 6.8H145.528V14H144.248V6.8H140.248V14H138.968ZM153.247 11.6V5.68H154.527V11.76C154.527 12.5067 154.901 12.88 155.647 12.88H158.847V5.68H160.127V14H155.647C154.047 14 153.247 13.2 153.247 11.6ZM162.686 14V5.68H167.166C168.766 5.68 169.566 6.48 169.566 8.08V14H168.286V7.92C168.286 7.17333 167.913 6.8 167.166 6.8H163.966V14H162.686ZM171.997 4.128V2.624H173.405V4.128H171.997ZM172.061 14V5.68H173.341V14H172.061ZM175.841 11.6V2.96H177.121V5.68H180.161V6.8H177.121V11.76C177.121 12.5067 177.494 12.88 178.241 12.88H180.321V13.52L179.681 14H178.241C176.641 14 175.841 13.2 175.841 11.6ZM181.211 5.904L181.355 5.68H182.459L184.891 12.88H185.211L187.643 5.68H188.747L188.891 5.904L184.987 17.2H183.883L183.739 16.976L184.811 14H184.011L181.211 5.904Z" fill="white"/>
<path d="M18.8806 1.40921C17.4591 0.756953 15.9347 0.276392 14.3409 0.00115385C14.3119 -0.00415622 14.2829 0.00911895 14.2679 0.0356693C14.0719 0.384364 13.8547 0.839259 13.7026 1.1968C11.9884 0.940151 10.2829 0.940151 8.60377 1.1968C8.45169 0.831294 8.22663 0.384364 8.02971 0.0356693C8.01477 0.010004 7.98576 -0.00327121 7.95674 0.00115385C6.36379 0.275507 4.8394 0.756068 3.41699 1.40921C3.40468 1.41452 3.39413 1.42337 3.3871 1.43487C0.495683 5.75461 -0.296401 9.96815 0.0921683 14.1295C0.0939265 14.1498 0.105355 14.1693 0.121179 14.1817C2.02886 15.5827 3.87676 16.4332 5.69038 16.9969C5.71939 17.0058 5.75016 16.9951 5.76862 16.9712C6.19763 16.3854 6.58005 15.7676 6.90796 15.118C6.9273 15.08 6.90884 15.0348 6.86928 15.0198C6.26269 14.7897 5.68511 14.5091 5.12951 14.1905C5.08555 14.1649 5.08203 14.102 5.12247 14.0719C5.2394 13.9843 5.35632 13.8932 5.46797 13.8011C5.48819 13.7843 5.51632 13.7808 5.54005 13.7914C9.19014 15.4579 13.1418 15.4579 16.7488 13.7914C16.7725 13.7799 16.8007 13.7834 16.8218 13.8002C16.9334 13.8923 17.0503 13.9843 17.1681 14.0719C17.2086 14.102 17.2059 14.1649 17.162 14.1905C16.6064 14.5153 16.0288 14.7897 15.4213 15.0189C15.3818 15.034 15.3642 15.08 15.3835 15.118C15.7185 15.7667 16.1009 16.3845 16.522 16.9704C16.5396 16.9951 16.5712 17.0058 16.6002 16.9969C18.4226 16.4332 20.2705 15.5827 22.1782 14.1817C22.1949 14.1693 22.2055 14.1507 22.2072 14.1304C22.6723 9.31943 21.4283 5.14041 18.9097 1.43576C18.9035 1.42337 18.893 1.41452 18.8806 1.40921ZM7.45301 11.5957C6.35411 11.5957 5.44862 10.5868 5.44862 9.34776C5.44862 8.10874 6.33653 7.09983 7.45301 7.09983C8.57828 7.09983 9.47498 8.11759 9.4574 9.34776C9.4574 10.5868 8.56949 11.5957 7.45301 11.5957ZM14.864 11.5957C13.7651 11.5957 12.8596 10.5868 12.8596 9.34776C12.8596 8.10874 13.7475 7.09983 14.864 7.09983C15.9892 7.09983 16.8859 8.11759 16.8683 9.34776C16.8683 10.5868 15.9892 11.5957 14.864 11.5957Z" fill="white"/>
</svg>
