<svg width="108" height="22" viewBox="0 0 108 22" fill="none" xmlns="http://www.w3.org/2000/svg">
<path d="M47.44 15V3.96H54.64V5.176H48.784V9.08H54.16V10.296H48.784V15H47.44ZM55.1325 14.712L58.7485 3.96H60.9565L64.5725 14.712L64.3805 15H63.2765L62.3645 12.216H57.3405L56.4285 15H55.3245L55.1325 14.712ZM57.7405 11H61.9645L60.0445 5.176H59.6605L57.7405 11ZM66.1706 12.552V6.408C66.1706 4.776 66.9866 3.96 68.6186 3.96H72.3626C73.9946 3.96 74.8106 4.776 74.8106 6.408V12.568C74.8106 14.0507 74.112 14.8453 72.7146 14.952L73.8026 17.08L73.6266 17.4H72.4906L71.2746 15H68.6186C66.9866 15 66.1706 14.184 66.1706 12.552ZM67.5146 12.696C67.5146 13.4213 67.8773 13.784 68.6026 13.784H72.3786C73.104 13.784 73.4666 13.4213 73.4666 12.696V6.264C73.4666 5.53867 73.104 5.176 72.3786 5.176H68.6026C67.8773 5.176 67.5146 5.53867 67.5146 6.264V12.696Z" fill="white"/>
<path d="M8.09 7.7334C8.3251 7.09052 8.78915 6.54842 9.39995 6.20312C10.0108 5.85782 10.7289 5.7316 11.4272 5.84681C12.1255 5.96202 12.7588 6.31123 13.2151 6.83259C13.6713 7.35395 13.9211 8.01382 13.92 8.69531C13.92 10.6191 10.92 11.5811 10.92 11.5811M11 15.4287H11.01M21 10.6191C21 15.9316 16.5228 20.2383 11 20.2383C5.47715 20.2383 1 15.9316 1 10.6191C1 5.30664 5.47715 1 11 1C16.5228 1 21 5.30664 21 10.6191Z" stroke="white" stroke-width="2" stroke-linecap="round" stroke-linejoin="round"/>
</svg>
