<svg width="388" height="77" viewBox="0 0 388 77" fill="none" xmlns="http://www.w3.org/2000/svg">
<path d="M15 2H373C380.18 2 386 7.8203 386 15V62C386 69.1797 380.18 75 373 75H15C7.8203 75 2 69.1797 2 62V15C2 7.8203 7.8203 2 15 2Z" fill="#FF5F08" fill-opacity="0.25" stroke="#FF5F08" stroke-width="4"/>
<path d="M69.1364 44.312V30.848C69.1364 27.056 71.0204 25.16 74.7884 25.16H85.5164L87.3524 26.6V28.472H74.8244C73.4564 28.472 72.7724 29.144 72.7724 30.488V44.672C72.7724 46.016 73.4564 46.688 74.8244 46.688H84.4364V38.696H78.7124V35.384H88.0724V50H74.7884C71.0204 50 69.1364 48.104 69.1364 44.312ZM93.0359 44.456V36.716C93.0359 33.044 94.8719 31.208 98.5439 31.208H103.224C106.896 31.208 108.732 33.044 108.732 36.716V41.9H96.5279V44.816C96.5279 46.232 97.2359 46.94 98.6519 46.94H108.012V48.776L106.392 50H98.5439C94.8719 50 93.0359 48.152 93.0359 44.456ZM96.5279 39.164H105.24V36.356C105.24 34.964 104.544 34.268 103.152 34.268H98.6519C97.2359 34.268 96.5279 34.964 96.5279 36.356V39.164ZM113.922 44.456V25.16H117.414V31.208H124.074V34.268H117.414V44.816C117.414 46.232 118.122 46.94 119.538 46.94H124.434V48.776L122.778 50H119.43C115.758 50 113.922 48.152 113.922 44.456ZM128.406 44.456V25.16H131.898V31.208H138.558V34.268H131.898V44.816C131.898 46.232 132.606 46.94 134.022 46.94H138.918V48.776L137.262 50H133.914C130.242 50 128.406 48.152 128.406 44.456ZM142.891 27.824V24.008H146.635V27.824H142.891ZM143.035 50V31.208H146.527V50H143.035ZM152.14 50V31.208H162.328C166 31.208 167.836 33.044 167.836 36.716V50H164.344V36.356C164.344 34.964 163.648 34.268 162.256 34.268H155.632V50H152.14ZM172.944 44.456V36.716C172.944 33.044 174.792 31.208 178.488 31.208H188.712V51.656C188.712 55.352 186.864 57.2 183.168 57.2H176.112L174.456 55.976V54.14H183.096C184.512 54.14 185.22 53.432 185.22 52.016V50H178.488C174.792 50 172.944 48.152 172.944 44.456ZM176.436 44.816C176.436 46.232 177.144 46.94 178.56 46.94H185.22V34.268H178.56C177.144 34.268 176.436 34.964 176.436 36.356V44.816ZM202.186 48.56V46.688H213.274C214.642 46.688 215.326 46.016 215.326 44.672V41.828C215.326 40.652 214.81 39.968 213.778 39.776L206.254 38.228C203.542 37.7 202.186 35.888 202.186 32.792V30.848C202.186 27.056 204.07 25.16 207.838 25.16H216.406L218.242 26.6V28.472H207.874C206.506 28.472 205.822 29.144 205.822 30.488V32.936C205.822 34.112 206.338 34.796 207.37 34.988L214.93 36.464C217.618 37.04 218.962 38.864 218.962 41.936V44.312C218.962 48.104 217.078 50 213.31 50H204.022L202.186 48.56ZM223.715 44.456V25.16H227.207V31.208H233.867V34.268H227.207V44.816C227.207 46.232 227.915 46.94 229.331 46.94H234.227V48.776L232.571 50H229.223C225.551 50 223.715 48.152 223.715 44.456ZM242.879 50C239.183 50 237.335 48.164 237.335 44.492C237.335 40.82 239.183 38.984 242.879 38.984H248.963V36.356C248.963 34.964 248.267 34.268 246.875 34.268H239.171V32.432L240.827 31.208H246.947C250.619 31.208 252.455 33.044 252.455 36.716V50H242.879ZM240.827 44.816C240.827 46.232 241.535 46.94 242.951 46.94H248.963V41.72H242.951C241.535 41.72 240.827 42.428 240.827 43.844V44.816ZM257.781 50V33.44C258.621 31.952 260.217 31.208 262.569 31.208H266.277L267.933 32.432V34.268H263.253C262.317 34.268 261.657 34.508 261.273 34.988V50H257.781ZM271.528 44.456V25.16H275.02V31.208H281.68V34.268H275.02V44.816C275.02 46.232 275.728 46.94 277.144 46.94H282.04V48.776L280.384 50H277.036C273.364 50 271.528 48.152 271.528 44.456ZM285.868 44.456V36.716C285.868 33.044 287.704 31.208 291.376 31.208H296.056C299.728 31.208 301.564 33.044 301.564 36.716V41.9H289.36V44.816C289.36 46.232 290.068 46.94 291.484 46.94H300.844V48.776L299.224 50H291.376C287.704 50 285.868 48.152 285.868 44.456ZM289.36 39.164H298.072V36.356C298.072 34.964 297.376 34.268 295.984 34.268H291.484C290.068 34.268 289.36 34.964 289.36 36.356V39.164ZM306.61 44.456V36.716C306.61 33.044 308.446 31.208 312.118 31.208H318.814V23.36H322.306V50H312.118C308.446 50 306.61 48.152 306.61 44.456ZM310.102 44.816C310.102 46.232 310.81 46.94 312.226 46.94H318.814V34.268H312.226C310.81 34.268 310.102 34.964 310.102 36.356V44.816Z" fill="white"/>
</svg>
