<svg width="1143" height="302" viewBox="0 0 1143 302" fill="none" xmlns="http://www.w3.org/2000/svg">
<path d="M801.962 168.962C804.171 168.962 805.962 167.171 805.962 164.962V128.962C805.962 126.753 804.171 124.962 801.962 124.962C799.753 124.962 797.962 126.753 797.962 128.962V160.962H765.962C763.753 160.962 761.962 162.753 761.962 164.962C761.962 167.171 763.753 168.962 765.962 168.962H801.962ZM753.172 121.828L799.134 167.79L804.79 162.134L758.828 116.172L753.172 121.828Z" fill="white"/>
<path d="M387.426 121C387.426 118.791 385.636 117 383.426 117H347.426C345.217 117 343.426 118.791 343.426 121C343.426 123.209 345.217 125 347.426 125H379.426V157C379.426 159.209 381.217 161 383.426 161C385.636 161 387.426 159.209 387.426 157V121ZM343.828 166.255L386.255 123.828L380.598 118.172L338.172 160.598L343.828 166.255Z" fill="white"/>
<g filter="url(#filter0_b_99_962)">
<rect x="303" y="298" width="299" height="212" rx="10" transform="rotate(180 303 298)" fill="url(#paint0_linear_99_962)" fill-opacity="0.3"/>
<rect x="305" y="300" width="303" height="216" rx="12" transform="rotate(180 305 300)" stroke="url(#paint1_linear_99_962)" stroke-width="4"/>
</g>
<path d="M85.0371 213.752V211.88H92.4771C92.9571 211.88 93.1971 211.64 93.1971 211.16V209.432C93.1971 208.968 92.9971 208.704 92.5971 208.64L87.9171 207.68C85.9971 207.296 85.0371 206.008 85.0371 203.816V202.472C85.0371 199.784 86.3811 198.44 89.0691 198.44H94.5651L96.1731 199.688V201.56H89.2131C88.7331 201.56 88.4931 201.8 88.4931 202.28V203.84C88.4931 204.288 88.6931 204.552 89.0931 204.632L93.7731 205.568C95.6931 205.952 96.6531 207.24 96.6531 209.432V210.968C96.6531 213.656 95.3091 215 92.6211 215H86.6451L85.0371 213.752ZM99.5304 211.112V202.328H102.842V211.352C102.842 211.864 103.098 212.12 103.61 212.12H107.114V202.328H110.426V215H103.418C100.826 215 99.5304 213.704 99.5304 211.112ZM113.876 215V197.24H117.188V202.328H120.884C123.476 202.328 124.772 203.624 124.772 206.216V211.112C124.772 213.704 123.476 215 120.884 215H113.876ZM117.188 212.12H120.692C121.204 212.12 121.46 211.864 121.46 211.352V205.976C121.46 205.464 121.204 205.208 120.692 205.208H117.188V212.12ZM128.033 215V202.328H142.481C145.073 202.328 146.369 203.624 146.369 206.216V215H143.057V205.976C143.057 205.464 142.801 205.208 142.289 205.208H138.857V215H135.545V205.208H131.345V215H128.033ZM149.664 200.24V197H153.12V200.24H149.664ZM149.736 215V202.328H153.048V215H149.736ZM156.413 211.112V198.44H159.725V202.328H163.853V205.208H159.725V211.352C159.725 211.864 159.981 212.12 160.493 212.12H164.093V213.92L162.653 215H160.301C157.709 215 156.413 213.704 156.413 211.112ZM171.151 202.832L171.487 202.328H174.343L177.271 212.12H177.511L180.439 202.328H183.295L183.631 202.832L178.327 219.8H175.471L175.135 219.296L176.575 215H174.967L171.151 202.832ZM185.591 211.112V206.216C185.591 203.624 186.887 202.328 189.479 202.328H192.839C195.431 202.328 196.727 203.624 196.727 206.216V211.112C196.727 213.704 195.431 215 192.839 215H189.479C186.887 215 185.591 213.704 185.591 211.112ZM188.903 211.352C188.903 211.864 189.159 212.12 189.671 212.12H192.647C193.159 212.12 193.415 211.864 193.415 211.352V205.976C193.415 205.464 193.159 205.208 192.647 205.208H189.671C189.159 205.208 188.903 205.464 188.903 205.976V211.352ZM199.89 211.112V202.328H203.202V211.352C203.202 211.864 203.458 212.12 203.97 212.12H207.474V202.328H210.786V215H203.778C201.186 215 199.89 213.704 199.89 211.112ZM214.14 215V203.96C214.732 202.872 215.868 202.328 217.548 202.328H220.14L221.58 203.408V205.208H218.436C217.956 205.208 217.628 205.328 217.452 205.568V215H214.14ZM67.4941 263.752V261.88H74.9341C75.4141 261.88 75.6541 261.64 75.6541 261.16V259.432C75.6541 258.968 75.4541 258.704 75.0541 258.64L70.3741 257.68C68.4541 257.296 67.4941 256.008 67.4941 253.816V252.472C67.4941 249.784 68.8381 248.44 71.5261 248.44H77.0221L78.6301 249.688V251.56H71.6701C71.1901 251.56 70.9501 251.8 70.9501 252.28V253.84C70.9501 254.288 71.1501 254.552 71.5501 254.632L76.2301 255.568C78.1501 255.952 79.1101 257.24 79.1101 259.432V260.968C79.1101 263.656 77.7661 265 75.0781 265H69.1021L67.4941 263.752ZM82.0835 265V252.328H96.5315C99.1235 252.328 100.419 253.624 100.419 256.216V265H97.1075V255.976C97.1075 255.464 96.8515 255.208 96.3395 255.208H92.9075V265H89.5955V255.208H85.3955V265H82.0835ZM107.003 265C104.411 265 103.115 263.728 103.115 261.184C103.115 258.64 104.411 257.368 107.003 257.368H110.315V255.976C110.315 255.464 110.059 255.208 109.547 255.208H104.459V253.408L105.899 252.328H109.739C112.331 252.328 113.627 253.624 113.627 256.216V265H107.003ZM106.427 261.352C106.427 261.864 106.683 262.12 107.195 262.12H110.315V259.912H107.195C106.683 259.912 106.427 260.168 106.427 260.68V261.352ZM116.886 265V253.96C117.478 252.872 118.614 252.328 120.294 252.328H122.886L124.326 253.408V255.208H121.182C120.702 255.208 120.374 255.328 120.198 255.568V265H116.886ZM126.589 261.112V248.44H129.901V252.328H134.029V255.208H129.901V261.352C129.901 261.864 130.157 262.12 130.669 262.12H134.269V263.92L132.829 265H130.477C127.885 265 126.589 263.704 126.589 261.112ZM142.623 260.968V252.472C142.623 249.784 143.967 248.44 146.655 248.44H153.063L154.671 249.688V251.56H146.799C146.319 251.56 146.079 251.8 146.079 252.28V261.16C146.079 261.64 146.319 261.88 146.799 261.88H154.671V263.752L153.063 265H146.655C143.967 265 142.623 263.656 142.623 260.968ZM157.407 261.112V256.216C157.407 253.624 158.703 252.328 161.295 252.328H164.655C167.247 252.328 168.543 253.624 168.543 256.216V261.112C168.543 263.704 167.247 265 164.655 265H161.295C158.703 265 157.407 263.704 157.407 261.112ZM160.719 261.352C160.719 261.864 160.975 262.12 161.487 262.12H164.463C164.975 262.12 165.231 261.864 165.231 261.352V255.976C165.231 255.464 164.975 255.208 164.463 255.208H161.487C160.975 255.208 160.719 255.464 160.719 255.976V261.352ZM171.802 265V252.328H178.81C181.402 252.328 182.698 253.624 182.698 256.216V265H179.386V255.976C179.386 255.464 179.13 255.208 178.618 255.208H175.114V265H171.802ZM185.956 261.112V248.44H189.268V252.328H193.396V255.208H189.268V261.352C189.268 261.864 189.524 262.12 190.036 262.12H193.636V263.92L192.196 265H189.844C187.252 265 185.956 263.704 185.956 261.112ZM196.128 265V253.96C196.72 252.872 197.856 252.328 199.536 252.328H202.128L203.568 253.408V255.208H200.424C199.944 255.208 199.616 255.328 199.44 255.568V265H196.128ZM208.909 265C206.317 265 205.021 263.728 205.021 261.184C205.021 258.64 206.317 257.368 208.909 257.368H212.221V255.976C212.221 255.464 211.965 255.208 211.453 255.208H206.365V253.408L207.805 252.328H211.645C214.237 252.328 215.533 253.624 215.533 256.216V265H208.909ZM208.333 261.352C208.333 261.864 208.589 262.12 209.101 262.12H212.221V259.912H209.101C208.589 259.912 208.333 260.168 208.333 260.68V261.352ZM218.696 261.112V256.216C218.696 253.624 219.992 252.328 222.584 252.328H227.048L228.488 253.408V255.208H222.776C222.264 255.208 222.008 255.464 222.008 255.976V261.352C222.008 261.864 222.264 262.12 222.776 262.12H228.488V263.92L227.048 265H222.584C219.992 265 218.696 263.704 218.696 261.112ZM231.214 261.112V248.44H234.526V252.328H238.654V255.208H234.526V261.352C234.526 261.864 234.782 262.12 235.294 262.12H238.894V263.92L237.454 265H235.102C232.51 265 231.214 263.704 231.214 261.112Z" fill="white"/>
<path d="M137.692 130.231V114.846C137.692 113.826 138.098 112.848 138.819 112.127C139.54 111.405 140.518 111 141.539 111H160.769L180 130.231V157.154C180 158.174 179.595 159.152 178.874 159.873C178.152 160.595 177.174 161 176.154 161H156.923" stroke="white" stroke-width="4" stroke-linecap="round" stroke-linejoin="round"/>
<path d="M160.769 111V130.231H180" stroke="white" stroke-width="4" stroke-linecap="round" stroke-linejoin="round"/>
<path d="M141.539 137.923V161" stroke="white" stroke-width="4" stroke-linecap="round" stroke-linejoin="round"/>
<path d="M130 149.462H153.077" stroke="white" stroke-width="4" stroke-linecap="round" stroke-linejoin="round"/>
<g filter="url(#filter1_b_99_962)">
<rect x="1139" y="298" width="299" height="212" rx="10" transform="rotate(180 1139 298)" fill="url(#paint2_linear_99_962)" fill-opacity="0.3"/>
<rect x="1141" y="300" width="303" height="216" rx="12" transform="rotate(180 1141 300)" stroke="url(#paint3_linear_99_962)" stroke-width="4"/>
</g>
<path d="M892.089 215V198.44H903.417V201.56H895.545V205.64H902.697V208.76H895.545V215H892.089ZM905.769 211.112V202.328H909.081V211.352C909.081 211.864 909.337 212.12 909.849 212.12H913.353V202.328H916.665V215H909.657C907.065 215 905.769 213.704 905.769 211.112ZM920.019 210.392V197.24H923.331V210.728C923.331 211.72 923.843 212.272 924.867 212.384V215.24C921.635 215.24 920.019 213.624 920.019 210.392ZM927.448 210.392V197.24H930.76V210.728C930.76 211.72 931.272 212.272 932.296 212.384V215.24C929.064 215.24 927.448 213.624 927.448 210.392ZM939.444 214.352L944.364 198.44H949.644L954.564 214.352L954.132 215H951.252L950.244 211.64H943.764L942.756 215H939.876L939.444 214.352ZM944.7 208.52H949.308L947.196 201.56H946.812L944.7 208.52ZM956.628 211.112V202.328H959.94V211.352C959.94 211.864 960.196 212.12 960.708 212.12H964.212V202.328H967.524V215H960.516C957.924 215 956.628 213.704 956.628 211.112ZM970.782 211.112V206.216C970.782 203.624 972.078 202.328 974.67 202.328H978.366V197.24H981.678V215H974.67C972.078 215 970.782 213.704 970.782 211.112ZM974.094 211.352C974.094 211.864 974.35 212.12 974.862 212.12H978.366V205.208H974.862C974.35 205.208 974.094 205.464 974.094 205.976V211.352ZM985.058 200.24V197H988.514V200.24H985.058ZM985.13 215V202.328H988.442V215H985.13ZM991.808 211.112V198.44H995.12V202.328H999.248V205.208H995.12V211.352C995.12 211.864 995.376 212.12 995.888 212.12H999.488V213.92L998.048 215H995.696C993.104 215 991.808 213.704 991.808 211.112ZM1008.08 215V198.44H1016.15C1018.83 198.44 1020.18 199.784 1020.18 202.472V205.208C1020.18 207.208 1019.43 208.456 1017.95 208.952L1020.66 214.28L1020.25 215H1017.27L1014.35 209.24H1011.54V215H1008.08ZM1011.54 206.12H1016C1016.48 206.12 1016.72 205.88 1016.72 205.4V202.28C1016.72 201.8 1016.48 201.56 1016 201.56H1011.54V206.12ZM1023.21 211.112V206.216C1023.21 203.624 1024.51 202.328 1027.1 202.328H1030.22C1032.81 202.328 1034.11 203.624 1034.11 206.216V209.888H1026.52V211.352C1026.52 211.864 1026.78 212.12 1027.29 212.12H1033.63V213.92L1032.19 215H1027.1C1024.51 215 1023.21 213.704 1023.21 211.112ZM1026.52 207.344H1030.8V205.976C1030.8 205.464 1030.54 205.208 1030.03 205.208H1027.29C1026.78 205.208 1026.52 205.464 1026.52 205.976V207.344ZM1037.37 219.8V202.328H1044.38C1046.97 202.328 1048.27 203.624 1048.27 206.216V211.112C1048.27 213.704 1046.97 215 1044.38 215H1040.68V219.8H1037.37ZM1040.68 212.12H1044.19C1044.7 212.12 1044.96 211.864 1044.96 211.352V205.976C1044.96 205.464 1044.7 205.208 1044.19 205.208H1040.68V212.12ZM1051.34 211.112V206.216C1051.34 203.624 1052.63 202.328 1055.22 202.328H1058.58C1061.18 202.328 1062.47 203.624 1062.47 206.216V211.112C1062.47 213.704 1061.18 215 1058.58 215H1055.22C1052.63 215 1051.34 213.704 1051.34 211.112ZM1054.65 211.352C1054.65 211.864 1054.9 212.12 1055.42 212.12H1058.39C1058.9 212.12 1059.16 211.864 1059.16 211.352V205.976C1059.16 205.464 1058.9 205.208 1058.39 205.208H1055.42C1054.9 205.208 1054.65 205.464 1054.65 205.976V211.352ZM1065.64 215V203.96C1066.23 202.872 1067.36 202.328 1069.04 202.328H1071.64L1073.08 203.408V205.208H1069.93C1069.45 205.208 1069.12 205.328 1068.95 205.568V215H1065.64ZM1075.34 211.112V198.44H1078.65V202.328H1082.78V205.208H1078.65V211.352C1078.65 211.864 1078.91 212.12 1079.42 212.12H1083.02V213.92L1081.58 215H1079.23C1076.64 215 1075.34 213.704 1075.34 211.112ZM851.256 263.752V261.88H858.696C859.176 261.88 859.416 261.64 859.416 261.16V259.432C859.416 258.968 859.216 258.704 858.816 258.64L854.136 257.68C852.216 257.296 851.256 256.008 851.256 253.816V252.472C851.256 249.784 852.6 248.44 855.288 248.44H860.784L862.392 249.688V251.56H855.432C854.952 251.56 854.712 251.8 854.712 252.28V253.84C854.712 254.288 854.912 254.552 855.312 254.632L859.992 255.568C861.912 255.952 862.872 257.24 862.872 259.432V260.968C862.872 263.656 861.528 265 858.84 265H852.864L851.256 263.752ZM866.085 265V248.44H873.909C876.597 248.44 877.941 249.784 877.941 252.472V253.912C877.941 254.456 877.781 254.92 877.461 255.304L876.621 256.312L877.629 257.152C878.157 257.584 878.421 258.224 878.421 259.072V260.968C878.421 263.656 877.077 265 874.389 265H866.085ZM869.541 261.88H874.245C874.725 261.88 874.965 261.64 874.965 261.16V258.76C874.965 258.28 874.725 258.04 874.245 258.04H869.541V261.88ZM869.541 254.92H873.765C874.245 254.92 874.485 254.68 874.485 254.2V252.28C874.485 251.8 874.245 251.56 873.765 251.56H869.541V254.92ZM880.349 251.56V248.44H893.885V251.56H888.845V265H885.389V251.56H880.349ZM900.762 252.832L901.122 252.328H903.906L905.826 262.12H905.994L908.298 252.328H911.97L914.298 262.12H914.466L916.386 252.328H919.17L919.53 252.832L916.986 265H912.042L910.146 256.288L908.25 265H903.306L900.762 252.832ZM921.719 250.24V247H925.175V250.24H921.719ZM921.791 265V252.328H925.103V265H921.791ZM928.468 261.112V248.44H931.78V252.328H935.908V255.208H931.78V261.352C931.78 261.864 932.036 262.12 932.548 262.12H936.148V263.92L934.708 265H932.356C929.764 265 928.468 263.704 928.468 261.112ZM938.736 265V247.24H942.048V252.328H945.744C948.336 252.328 949.632 253.624 949.632 256.216V265H946.32V255.976C946.32 255.464 946.064 255.208 945.552 255.208H942.048V265H938.736ZM958.991 265V248.44H967.055C969.743 248.44 971.087 249.784 971.087 252.472V255.688C971.087 258.376 969.743 259.72 967.055 259.72H962.447V265H958.991ZM962.447 256.6H966.911C967.391 256.6 967.631 256.36 967.631 255.88V252.28C967.631 251.8 967.391 251.56 966.911 251.56H962.447V256.6ZM973.96 265V253.96C974.552 252.872 975.688 252.328 977.368 252.328H979.96L981.4 253.408V255.208H978.256C977.776 255.208 977.448 255.328 977.272 255.568V265H973.96ZM983.567 261.112V256.216C983.567 253.624 984.863 252.328 987.455 252.328H990.815C993.407 252.328 994.703 253.624 994.703 256.216V261.112C994.703 263.704 993.407 265 990.815 265H987.455C984.863 265 983.567 263.704 983.567 261.112ZM986.879 261.352C986.879 261.864 987.135 262.12 987.647 262.12H990.623C991.135 262.12 991.391 261.864 991.391 261.352V255.976C991.391 255.464 991.135 255.208 990.623 255.208H987.647C987.135 255.208 986.879 255.464 986.879 255.976V261.352ZM997.77 261.112V256.216C997.77 253.624 999.066 252.328 1001.66 252.328H1005.02C1007.61 252.328 1008.91 253.624 1008.91 256.216V261.112C1008.91 263.704 1007.61 265 1005.02 265H1001.66C999.066 265 997.77 263.704 997.77 261.112ZM1001.08 261.352C1001.08 261.864 1001.34 262.12 1001.85 262.12H1004.83C1005.34 262.12 1005.59 261.864 1005.59 261.352V255.976C1005.59 255.464 1005.34 255.208 1004.83 255.208H1001.85C1001.34 255.208 1001.08 255.464 1001.08 255.976V261.352ZM1012.17 265V251.128C1012.17 248.536 1013.46 247.24 1016.05 247.24H1018.41L1019.85 248.32V250.12H1016.25C1015.73 250.12 1015.48 250.376 1015.48 250.888V252.328H1019.61V255.208H1015.48V265H1012.17ZM1021.29 259.096V256.264H1028.49V259.096H1021.29ZM1030.98 261.112V256.216C1030.98 253.624 1032.28 252.328 1034.87 252.328H1038.23C1040.82 252.328 1042.12 253.624 1042.12 256.216V261.112C1042.12 263.704 1040.82 265 1038.23 265H1034.87C1032.28 265 1030.98 263.704 1030.98 261.112ZM1034.29 261.352C1034.29 261.864 1034.55 262.12 1035.06 262.12H1038.04C1038.55 262.12 1038.81 261.864 1038.81 261.352V255.976C1038.81 255.464 1038.55 255.208 1038.04 255.208H1035.06C1034.55 255.208 1034.29 255.464 1034.29 255.976V261.352ZM1045.38 265V251.128C1045.38 248.536 1046.67 247.24 1049.26 247.24H1051.62L1053.06 248.32V250.12H1049.46C1048.94 250.12 1048.69 250.376 1048.69 250.888V252.328H1052.82V255.208H1048.69V265H1045.38ZM1054.5 259.096V256.264H1061.7V259.096H1054.5ZM1063.09 264.352L1068.01 248.44H1073.29L1078.21 264.352L1077.78 265H1074.9L1073.89 261.64H1067.41L1066.4 265H1063.52L1063.09 264.352ZM1068.34 258.52H1072.95L1070.84 251.56H1070.46L1068.34 258.52ZM1080.27 261.112V252.328H1083.58V261.352C1083.58 261.864 1083.84 262.12 1084.35 262.12H1087.86V252.328H1091.17V265H1084.16C1081.57 265 1080.27 263.704 1080.27 261.112ZM1094.43 261.112V256.216C1094.43 253.624 1095.72 252.328 1098.31 252.328H1102.01V247.24H1105.32V265H1098.31C1095.72 265 1094.43 263.704 1094.43 261.112ZM1097.74 261.352C1097.74 261.864 1097.99 262.12 1098.51 262.12H1102.01V255.208H1098.51C1097.99 255.208 1097.74 255.464 1097.74 255.976V261.352ZM1108.7 250.24V247H1112.16V250.24H1108.7ZM1108.77 265V252.328H1112.09V265H1108.77ZM1115.45 261.112V248.44H1118.76V252.328H1122.89V255.208H1118.76V261.352C1118.76 261.864 1119.02 262.12 1119.53 262.12H1123.13V263.92L1121.69 265H1119.34C1116.75 265 1115.45 263.704 1115.45 261.112Z" fill="white"/>
<path d="M1014 166.545C1014 167.751 1013.52 168.907 1012.67 169.76C1011.82 170.612 1010.66 171.091 1009.45 171.091H968.545C967.34 171.091 966.184 170.612 965.331 169.76C964.479 168.907 964 167.751 964 166.545V116.545C964 115.34 964.479 114.184 965.331 113.331C966.184 112.479 967.34 112 968.545 112H991.273L1014 134.727V166.545Z" stroke="white" stroke-width="5" stroke-linecap="round" stroke-linejoin="round"/>
<path d="M977.636 148.364L984.454 152.909L995.818 134.727" stroke="white" stroke-width="5" stroke-linecap="round" stroke-linejoin="round"/>
<g filter="url(#filter2_b_99_962)">
<rect x="721" y="216" width="299" height="212" rx="10" transform="rotate(180 721 216)" fill="url(#paint4_linear_99_962)" fill-opacity="0.3"/>
<rect x="723" y="218" width="303" height="216" rx="12" transform="rotate(180 723 218)" stroke="url(#paint5_linear_99_962)" stroke-width="4"/>
</g>
<path d="M521.229 132.352L526.149 116.44H531.429L536.349 132.352L535.917 133H533.037L532.029 129.64H525.549L524.541 133H521.661L521.229 132.352ZM526.485 126.52H531.093L528.981 119.56H528.597L526.485 126.52ZM538.749 133V116.44H542.205V133H538.749ZM551.898 133V116.44H556.026L560.682 126.376L565.338 116.44H569.466V133H566.01V122.536L562.122 130.84H559.242L555.354 122.536V133H551.898ZM572.981 129.112V124.216C572.981 121.624 574.277 120.328 576.869 120.328H580.229C582.821 120.328 584.117 121.624 584.117 124.216V129.112C584.117 131.704 582.821 133 580.229 133H576.869C574.277 133 572.981 131.704 572.981 129.112ZM576.293 129.352C576.293 129.864 576.549 130.12 577.061 130.12H580.037C580.549 130.12 580.805 129.864 580.805 129.352V123.976C580.805 123.464 580.549 123.208 580.037 123.208H577.061C576.549 123.208 576.293 123.464 576.293 123.976V129.352ZM587.184 129.112V124.216C587.184 121.624 588.48 120.328 591.072 120.328H594.768V115.24H598.08V133H591.072C588.48 133 587.184 131.704 587.184 129.112ZM590.496 129.352C590.496 129.864 590.752 130.12 591.264 130.12H594.768V123.208H591.264C590.752 123.208 590.496 123.464 590.496 123.976V129.352ZM601.341 129.112V124.216C601.341 121.624 602.637 120.328 605.229 120.328H608.349C610.941 120.328 612.237 121.624 612.237 124.216V127.888H604.653V129.352C604.653 129.864 604.909 130.12 605.421 130.12H611.757V131.92L610.317 133H605.229C602.637 133 601.341 131.704 601.341 129.112ZM604.653 125.344H608.925V123.976C608.925 123.464 608.669 123.208 608.157 123.208H605.421C604.909 123.208 604.653 123.464 604.653 123.976V125.344ZM615.405 128.392V115.24H618.717V128.728C618.717 129.72 619.229 130.272 620.253 130.384V133.24C617.021 133.24 615.405 131.624 615.405 128.392ZM486.419 187.8V170.328H493.427C496.019 170.328 497.315 171.624 497.315 174.216V179.112C497.315 181.704 496.019 183 493.427 183H489.731V187.8H486.419ZM489.731 180.12H493.235C493.747 180.12 494.003 179.864 494.003 179.352V173.976C494.003 173.464 493.747 173.208 493.235 173.208H489.731V180.12ZM500.384 179.112V174.216C500.384 171.624 501.68 170.328 504.272 170.328H507.392C509.984 170.328 511.28 171.624 511.28 174.216V177.888H503.696V179.352C503.696 179.864 503.952 180.12 504.464 180.12H510.8V181.92L509.36 183H504.272C501.68 183 500.384 181.704 500.384 179.112ZM503.696 175.344H507.968V173.976C507.968 173.464 507.712 173.208 507.2 173.208H504.464C503.952 173.208 503.696 173.464 503.696 173.976V175.344ZM514.448 183V171.96C515.04 170.872 516.176 170.328 517.856 170.328H520.448L521.888 171.408V173.208H518.744C518.264 173.208 517.936 173.328 517.76 173.568V183H514.448ZM524.248 183V169.128C524.248 166.536 525.544 165.24 528.136 165.24H530.488L531.928 166.32V168.12H528.328C527.816 168.12 527.56 168.376 527.56 168.888V170.328H531.688V173.208H527.56V183H524.248ZM533.946 179.112V174.216C533.946 171.624 535.242 170.328 537.834 170.328H541.194C543.786 170.328 545.082 171.624 545.082 174.216V179.112C545.082 181.704 543.786 183 541.194 183H537.834C535.242 183 533.946 181.704 533.946 179.112ZM537.258 179.352C537.258 179.864 537.514 180.12 538.026 180.12H541.002C541.514 180.12 541.77 179.864 541.77 179.352V173.976C541.77 173.464 541.514 173.208 541.002 173.208H538.026C537.514 173.208 537.258 173.464 537.258 173.976V179.352ZM548.245 183V171.96C548.837 170.872 549.973 170.328 551.653 170.328H554.245L555.685 171.408V173.208H552.541C552.061 173.208 551.733 173.328 551.557 173.568V183H548.245ZM558.044 183V170.328H572.492C575.084 170.328 576.38 171.624 576.38 174.216V183H573.068V173.976C573.068 173.464 572.812 173.208 572.3 173.208H568.868V183H565.556V173.208H561.356V183H558.044ZM579.316 181.92V180.12H584.836C585.38 180.12 585.652 179.816 585.652 179.208C585.652 178.584 585.428 178.232 584.98 178.152L582.388 177.72C580.34 177.368 579.316 176.184 579.316 174.168C579.316 171.608 580.612 170.328 583.204 170.328H586.924L588.364 171.408V173.208H583.396C582.852 173.208 582.58 173.512 582.58 174.12C582.58 174.76 582.828 175.12 583.324 175.2L585.892 175.632C587.924 175.968 588.94 177.136 588.94 179.136C588.94 181.712 587.636 183 585.028 183H580.756L579.316 181.92ZM596.405 182.352L601.325 166.44H606.605L611.525 182.352L611.093 183H608.213L607.205 179.64H600.725L599.717 183H596.837L596.405 182.352ZM601.661 176.52H606.269L604.157 169.56H603.773L601.661 176.52ZM613.589 179.112V170.328H616.901V179.352C616.901 179.864 617.157 180.12 617.669 180.12H621.173V170.328H624.485V183H617.477C614.885 183 613.589 181.704 613.589 179.112ZM627.743 179.112V174.216C627.743 171.624 629.039 170.328 631.631 170.328H635.327V165.24H638.639V183H631.631C629.039 183 627.743 181.704 627.743 179.112ZM631.055 179.352C631.055 179.864 631.311 180.12 631.823 180.12H635.327V173.208H631.823C631.311 173.208 631.055 173.464 631.055 173.976V179.352ZM642.019 168.24V165H645.475V168.24H642.019ZM642.091 183V170.328H645.403V183H642.091ZM648.769 179.112V166.44H652.081V170.328H656.209V173.208H652.081V179.352C652.081 179.864 652.337 180.12 652.849 180.12H656.449V181.92L655.009 183H652.657C650.065 183 648.769 181.704 648.769 179.112Z" fill="white"/>
<path d="M546 51.4615V41.8462C546 40.8261 546.405 39.8478 547.127 39.1265C547.848 38.4052 548.826 38 549.846 38H559.462" stroke="white" stroke-width="5" stroke-linecap="round" stroke-linejoin="round"/>
<path d="M596 51.4615V41.8462C596 40.8261 595.595 39.8478 594.874 39.1265C594.152 38.4052 593.174 38 592.154 38H582.539" stroke="white" stroke-width="5" stroke-linecap="round" stroke-linejoin="round"/>
<path d="M546 74.5385V84.1538C546 85.1739 546.405 86.1522 547.127 86.8735C547.848 87.5948 548.826 88 549.846 88H559.462" stroke="white" stroke-width="5" stroke-linecap="round" stroke-linejoin="round"/>
<path d="M596 74.5385V84.1538C596 85.1739 595.595 86.1522 594.874 86.8735C594.152 87.5948 593.174 88 592.154 88H582.539" stroke="white" stroke-width="5" stroke-linecap="round" stroke-linejoin="round"/>
<path d="M547.923 64.9231H557.538L563.307 49.5385L571 70.6923L578.692 55.3077L584.461 64.9231H594.077" stroke="white" stroke-width="5" stroke-linecap="round" stroke-linejoin="round"/>
<defs>
<filter id="filter0_b_99_962" x="-25" y="57" width="357" height="270" filterUnits="userSpaceOnUse" color-interpolation-filters="sRGB">
<feFlood flood-opacity="0" result="BackgroundImageFix"/>
<feGaussianBlur in="BackgroundImageFix" stdDeviation="12.5"/>
<feComposite in2="SourceAlpha" operator="in" result="effect1_backgroundBlur_99_962"/>
<feBlend mode="normal" in="SourceGraphic" in2="effect1_backgroundBlur_99_962" result="shape"/>
</filter>
<filter id="filter1_b_99_962" x="811" y="57" width="357" height="270" filterUnits="userSpaceOnUse" color-interpolation-filters="sRGB">
<feFlood flood-opacity="0" result="BackgroundImageFix"/>
<feGaussianBlur in="BackgroundImageFix" stdDeviation="12.5"/>
<feComposite in2="SourceAlpha" operator="in" result="effect1_backgroundBlur_99_962"/>
<feBlend mode="normal" in="SourceGraphic" in2="effect1_backgroundBlur_99_962" result="shape"/>
</filter>
<filter id="filter2_b_99_962" x="393" y="-25" width="357" height="270" filterUnits="userSpaceOnUse" color-interpolation-filters="sRGB">
<feFlood flood-opacity="0" result="BackgroundImageFix"/>
<feGaussianBlur in="BackgroundImageFix" stdDeviation="12.5"/>
<feComposite in2="SourceAlpha" operator="in" result="effect1_backgroundBlur_99_962"/>
<feBlend mode="normal" in="SourceGraphic" in2="effect1_backgroundBlur_99_962" result="shape"/>
</filter>
<linearGradient id="paint0_linear_99_962" x1="289.322" y1="281.085" x2="500.264" y2="621.423" gradientUnits="userSpaceOnUse">
<stop stop-color="#0F1B8D" stop-opacity="0.44"/>
<stop offset="1" stop-color="#8F8F8F" stop-opacity="0.21"/>
</linearGradient>
<linearGradient id="paint1_linear_99_962" x1="274.205" y1="270.674" x2="499.344" y2="627.502" gradientUnits="userSpaceOnUse">
<stop stop-color="#FF5A00"/>
<stop offset="0.471987" stop-opacity="0"/>
<stop offset="1" stop-color="#FF5A00"/>
</linearGradient>
<linearGradient id="paint2_linear_99_962" x1="1125.32" y1="281.085" x2="1336.26" y2="621.423" gradientUnits="userSpaceOnUse">
<stop stop-color="#0F1B8D" stop-opacity="0.44"/>
<stop offset="1" stop-color="#8F8F8F" stop-opacity="0.21"/>
</linearGradient>
<linearGradient id="paint3_linear_99_962" x1="1110.21" y1="270.674" x2="1335.34" y2="627.502" gradientUnits="userSpaceOnUse">
<stop stop-color="#FF5A00"/>
<stop offset="0.471987" stop-opacity="0"/>
<stop offset="1" stop-color="#FF5A00"/>
</linearGradient>
<linearGradient id="paint4_linear_99_962" x1="707.322" y1="199.085" x2="918.264" y2="539.423" gradientUnits="userSpaceOnUse">
<stop stop-color="#0F1B8D" stop-opacity="0.44"/>
<stop offset="1" stop-color="#8F8F8F" stop-opacity="0.21"/>
</linearGradient>
<linearGradient id="paint5_linear_99_962" x1="692.205" y1="188.674" x2="917.344" y2="545.502" gradientUnits="userSpaceOnUse">
<stop stop-color="#FF5A00"/>
<stop offset="0.471987" stop-opacity="0"/>
<stop offset="1" stop-color="#FF5A00"/>
</linearGradient>
</defs>
</svg>
