<svg width="186" height="47" viewBox="0 0 186 47" fill="none" xmlns="http://www.w3.org/2000/svg">
<path d="M0 10C0 4.47715 4.47715 0 10 0L176 0C181.523 0 186 4.47715 186 10V37C186 42.5229 181.523 47 176 47L10 47C4.47715 47 0 42.5228 0 37L0 10Z" fill="#FF5A00" fill-opacity="0.25"/>
<path d="M1.5 10C1.5 5.30558 5.30558 1.5 10 1.5L176 1.5C180.694 1.5 184.5 5.30558 184.5 10V37C184.5 41.6944 180.694 45.5 176 45.5L10 45.5C5.30558 45.5 1.5 41.6944 1.5 37L1.5 10Z" stroke="#FF5F08" stroke-opacity="0.4" stroke-width="3"/>
<path d="M14.8943 15.192V12.936H17.0063V15.192H14.8943ZM14.9903 30L14.9903 17.52H16.9103V30H14.9903ZM20.7559 30V17.52H27.4759C29.8759 17.52 31.0759 18.72 31.0759 21.12V30H29.1559V20.88C29.1559 19.76 28.5959 19.2 27.4759 19.2H22.6759V30H20.7559ZM34.7224 15.192V12.936H36.8344V15.192H34.7224ZM34.8184 30V17.52H36.7384V30L34.8184 30ZM40.4881 26.4V13.44H42.4081V17.52H46.9681V19.2H42.4081V26.64C42.4081 27.76 42.9681 28.32 44.0881 28.32H47.2081V29.28L46.2481 30H44.0881C41.6881 30 40.4881 28.8 40.4881 26.4ZM49.8865 15.192V12.936H51.9985V15.192H49.8865ZM49.9825 30V17.52H51.9025V30H49.9825ZM58.7001 30C56.2841 30 55.0761 28.792 55.0761 26.376C55.0761 23.96 56.2841 22.752 58.7001 22.752H63.0921V20.88C63.0921 19.76 62.5321 19.2 61.4121 19.2H56.2761V18.24L57.2361 17.52H61.4121C63.8121 17.52 65.0121 18.72 65.0121 21.12V30H58.7001ZM56.9961 26.64C56.9961 27.76 57.5561 28.32 58.6761 28.32H63.0921V24.312H58.6761C57.5561 24.312 56.9961 24.872 56.9961 25.992V26.64ZM68.6599 26.592V12.24H70.5799V26.784C70.5799 27.888 71.1399 28.472 72.2599 28.536V30.192C69.8599 30.192 68.6599 28.992 68.6599 26.592ZM74.8943 15.192V12.936H77.0063V15.192H74.8943ZM74.9903 30V17.52H76.9103V30H74.9903ZM80.0359 30V28.512L87.2119 19.2L80.2759 19.2V17.52L89.6359 17.52V19.008L82.4599 28.32H89.8759V30H80.0359ZM92.7983 26.4V21.12C92.7983 18.72 93.9983 17.52 96.3983 17.52H99.5183C101.918 17.52 103.118 18.72 103.118 21.12V24.504L94.7183 24.504V26.64C94.7183 27.76 95.2783 28.32 96.3983 28.32L102.638 28.32V29.28L101.678 30L96.3983 30C93.9983 30 92.7983 28.8 92.7983 26.4ZM94.7183 22.944L101.198 22.944V20.88C101.198 19.76 100.638 19.2 99.5183 19.2H96.3983C95.2783 19.2 94.7183 19.76 94.7183 20.88V22.944ZM111.097 29.568L116.521 13.44H119.833L125.257 29.568L124.969 30H123.313L121.945 25.824H114.409L113.041 30H111.385L111.097 29.568ZM115.009 24H121.345L118.465 15.264H117.889L115.009 24ZM127.558 26.4V17.52H129.478V26.64C129.478 27.76 130.038 28.32 131.158 28.32H135.958V17.52H137.878V30H131.158C128.758 30 127.558 28.8 127.558 26.4ZM141.525 26.4V21.12C141.525 18.72 142.725 17.52 145.125 17.52H149.925V12.24H151.845V30H145.125C142.725 30 141.525 28.8 141.525 26.4ZM143.445 26.64C143.445 27.76 144.005 28.32 145.125 28.32H149.925V19.2H145.125C144.005 19.2 143.445 19.76 143.445 20.88V26.64ZM155.59 15.192V12.936H157.702V15.192H155.59ZM155.686 30V17.52H157.606V30H155.686ZM161.355 26.4V13.44H163.275V17.52H167.835V19.2H163.275V26.64C163.275 27.76 163.835 28.32 164.955 28.32H168.075V29.28L167.115 30H164.955C162.555 30 161.355 28.8 161.355 26.4Z" fill="#FF5F08" fill-opacity="0.6"/>
</svg>
