<svg width="208" height="47" viewBox="0 0 208 47" fill="none" xmlns="http://www.w3.org/2000/svg">
<path d="M1.5 10C1.5 5.30558 5.30558 1.5 10 1.5L198 1.5C202.694 1.5 206.5 5.30558 206.5 10V37C206.5 41.6944 202.694 45.5 198 45.5L10 45.5C5.30558 45.5 1.5 41.6944 1.5 37L1.5 10Z" fill="#FF5A00" fill-opacity="0.25" stroke="#FF5F08" stroke-width="3"/>
<path d="M11.7213 30.16V29.176H19.1133C20.2013 29.176 20.7453 28.632 20.7453 27.544V25.6C20.7453 24.688 20.3373 24.152 19.5213 23.992L14.3613 22.936C12.6013 22.584 11.7213 21.408 11.7213 19.408V18.112C11.7213 15.664 12.9453 14.44 15.3933 14.44H21.2013L22.2812 15.28V16.264H15.3693C14.2813 16.264 13.7373 16.808 13.7373 17.896V19.528C13.7373 20.44 14.1453 20.976 14.9613 21.136L20.1213 22.168C21.8813 22.52 22.7613 23.704 22.7613 25.72V27.328C22.7613 29.776 21.5373 31 19.0893 31H12.8013L11.7213 30.16ZM26.0271 16.192V13.936H28.1391V16.192H26.0271ZM26.1231 31V18.52H28.0431V31H26.1231ZM31.6968 27.4V22.12C31.6968 19.72 32.8968 18.52 35.2968 18.52H42.0168V32.2C42.0168 34.6 40.8168 35.8 38.4168 35.8H33.6168L32.6568 35.08V34.12H38.4168C39.5368 34.12 40.0968 33.56 40.0968 32.44V31L35.2968 31C32.8968 31 31.6968 29.8 31.6968 27.4ZM33.6168 27.64C33.6168 28.76 34.1768 29.32 35.2968 29.32L40.0968 29.32V20.2H35.2968C34.1768 20.2 33.6168 20.76 33.6168 21.88V27.64ZM45.8575 31V18.52H52.5775C54.9775 18.52 56.1775 19.72 56.1775 22.12V31H54.2575V21.88C54.2575 20.76 53.6975 20.2 52.5775 20.2H47.7775V31H45.8575ZM65.9256 31V14.44H73.7736C76.2216 14.44 77.4456 15.664 77.4456 18.112V21.232C77.4456 23.68 76.2216 24.904 73.7736 24.904H67.9416V31H65.9256ZM67.9416 23.08H73.7976C74.8856 23.08 75.4296 22.536 75.4296 21.448V17.896C75.4296 16.808 74.8856 16.264 73.7976 16.264H67.9416V23.08ZM80.6108 27.4V22.12C80.6108 19.72 81.8108 18.52 84.2108 18.52H87.3308C89.7308 18.52 90.9308 19.72 90.9308 22.12V25.504H82.5308V27.64C82.5308 28.76 83.0908 29.32 84.2108 29.32H90.4508V30.28L89.4908 31H84.2108C81.8108 31 80.6108 29.8 80.6108 27.4ZM82.5308 23.944H89.0108V21.88C89.0108 20.76 88.4508 20.2 87.3308 20.2H84.2108C83.0908 20.2 82.5308 20.76 82.5308 21.88V23.944ZM94.4881 31V19.96C95.0481 19 96.0881 18.52 97.6081 18.52H100.008L100.968 19.24V20.2H97.8721C97.2001 20.2 96.7121 20.384 96.4081 20.752V31H94.4881ZM103.514 31V18.52H117.674C120.074 18.52 121.274 19.72 121.274 22.12V31H119.354V21.88C119.354 20.76 118.794 20.2 117.674 20.2H113.354V31H111.434V20.2H105.434V31L103.514 31ZM124.933 16.192V13.936H127.045V16.192H124.933ZM125.029 31V18.52H126.949V31H125.029ZM130.315 30.28V29.32H135.859C136.963 29.32 137.515 28.76 137.515 27.64C137.515 26.504 137.075 25.864 136.195 25.72L133.339 25.24C131.323 24.904 130.315 23.808 130.315 21.952C130.315 19.664 131.515 18.52 133.915 18.52H137.923L138.883 19.24V20.2H133.891C132.771 20.2 132.211 20.76 132.211 21.88C132.211 22.888 132.683 23.472 133.627 23.632L136.483 24.112C138.467 24.432 139.459 25.576 139.459 27.544C139.459 29.848 138.243 31 135.811 31H131.275L130.315 30.28ZM142.315 30.28V29.32H147.859C148.963 29.32 149.515 28.76 149.515 27.64C149.515 26.504 149.075 25.864 148.195 25.72L145.339 25.24C143.323 24.904 142.315 23.808 142.315 21.952C142.315 19.664 143.515 18.52 145.915 18.52H149.923L150.883 19.24V20.2H145.891C144.771 20.2 144.211 20.76 144.211 21.88C144.211 22.888 144.683 23.472 145.627 23.632L148.483 24.112C150.467 24.432 151.459 25.576 151.459 27.544C151.459 29.848 150.243 31 147.811 31H143.275L142.315 30.28ZM154.699 16.192V13.936H156.811V16.192H154.699ZM154.795 31V18.52H156.715V31H154.795ZM160.369 27.4V22.12C160.369 19.72 161.569 18.52 163.969 18.52H167.329C169.729 18.52 170.929 19.72 170.929 22.12V27.4C170.929 29.8 169.729 31 167.329 31H163.969C161.569 31 160.369 29.8 160.369 27.4ZM162.289 27.64C162.289 28.76 162.849 29.32 163.969 29.32H167.329C168.449 29.32 169.009 28.76 169.009 27.64V21.88C169.009 20.76 168.449 20.2 167.329 20.2H163.969C162.849 20.2 162.289 20.76 162.289 21.88V27.64ZM174.576 31V18.52H181.296C183.696 18.52 184.896 19.72 184.896 22.12V31H182.976V21.88C182.976 20.76 182.416 20.2 181.296 20.2H176.496V31H174.576ZM188.159 30.28V29.32H193.703C194.807 29.32 195.359 28.76 195.359 27.64C195.359 26.504 194.919 25.864 194.039 25.72L191.183 25.24C189.167 24.904 188.159 23.808 188.159 21.952C188.159 19.664 189.359 18.52 191.759 18.52H195.767L196.727 19.24V20.2H191.735C190.615 20.2 190.055 20.76 190.055 21.88C190.055 22.888 190.527 23.472 191.471 23.632L194.327 24.112C196.311 24.432 197.303 25.576 197.303 27.544C197.303 29.848 196.087 31 193.655 31H189.119L188.159 30.28Z" fill="#FF5F08"/>
</svg>
