<svg width="108" height="21" viewBox="0 0 108 21" fill="none" xmlns="http://www.w3.org/2000/svg">
<path d="M46.384 5.176V3.96H55.088V5.176H51.408V15H50.064V5.176H46.384ZM55.6965 6.904L55.8565 6.68H56.9125L58.6085 13.88H58.8325L60.8645 6.68H62.3205L64.3525 13.88H64.5765L66.2885 6.68H67.3285L67.4885 6.904L65.5365 15H63.4885L61.5845 8.152L59.6965 15H57.6485L55.6965 6.904ZM69.091 5.128V3.624H70.499V5.128H69.091ZM69.155 15V6.68H70.435V15H69.155ZM72.9348 12.6V3.96H74.2148V6.68H77.2548V7.8H74.2148V12.76C74.2148 13.5067 74.5881 13.88 75.3348 13.88H77.4148V14.52L76.7748 15H75.3348C73.7348 15 72.9348 14.2 72.9348 12.6ZM79.2004 12.6V3.96H80.4804V6.68H83.5204V7.8H80.4804V12.76C80.4804 13.5067 80.8537 13.88 81.6004 13.88H83.6804V14.52L83.0404 15H81.6004C80.0004 15 79.2004 14.2 79.2004 12.6ZM85.402 12.6V9.08C85.402 7.48 86.202 6.68 87.802 6.68H89.882C91.482 6.68 92.282 7.48 92.282 9.08V11.336H86.682V12.76C86.682 13.5067 87.0553 13.88 87.802 13.88H91.962V14.52L91.322 15H87.802C86.202 15 85.402 14.2 85.402 12.6ZM86.682 10.296H91.002V8.92C91.002 8.17333 90.6287 7.8 89.882 7.8H87.802C87.0553 7.8 86.682 8.17333 86.682 8.92V10.296ZM94.6535 15V7.64C95.0268 7 95.7202 6.68 96.7335 6.68H98.3335L98.9735 7.16V7.8H96.9095C96.4615 7.8 96.1362 7.92267 95.9335 8.168V15H94.6535Z" fill="white"/>
<path d="M6.32506 13.2975C5.20553 14.1769 3.92055 14.822 2.54658 15.1946C2.39524 15.2495 2.26449 15.3497 2.17208 15.4816C2.07968 15.6134 2.03011 15.7705 2.03011 15.9315C2.03011 16.0925 2.07968 16.2496 2.17208 16.3814C2.26449 16.5132 2.39524 16.6134 2.54658 16.6684C13.396 21.121 20.2945 14.2382 19.244 6.60286L21 2.96548H18.9618C16.4219 -0.154514 9.68023 0.00227021 10.7934 6.64989C10.7934 6.64989 7.18737 7.29271 2.57793 2.76166C2.47131 2.65639 2.33675 2.58388 2.19019 2.55273C2.04363 2.52157 1.89121 2.53307 1.75098 2.58586C1.61075 2.63865 1.48859 2.73052 1.39897 2.8506C1.30934 2.97067 1.256 3.11392 1.24527 3.26337C0.757883 5.26682 1.00179 7.37847 1.93309 9.21806C2.86438 11.0576 4.42185 12.5043 6.32506 13.2975Z" stroke="white" stroke-width="2" stroke-linecap="round" stroke-linejoin="round"/>
</svg>
