<svg width="186" height="47" viewBox="0 0 186 47" fill="none" xmlns="http://www.w3.org/2000/svg">
<path d="M1.5 10C1.5 5.30558 5.30558 1.5 10 1.5L176 1.5C180.694 1.5 184.5 5.30558 184.5 10V37C184.5 41.6944 180.694 45.5 176 45.5L10 45.5C5.30558 45.5 1.5 41.6944 1.5 37L1.5 10Z" fill="#FF5A00" fill-opacity="0.25" stroke="#FF5F08" stroke-width="3"/>
<path d="M15.0191 18.856L15.2351 18.52H16.8911L20.5391 29.32H21.0191L24.6671 18.52H26.3231L26.5391 18.856L22.3391 31H19.2191L15.0191 18.856ZM28.8318 16.192V13.936H30.9438V16.192H28.8318ZM28.9278 31V18.52H30.8478V31H28.9278ZM34.5014 27.4V22.12C34.5014 19.72 35.7014 18.52 38.1014 18.52H41.2214C43.6214 18.52 44.8214 19.72 44.8214 22.12V25.504L36.4214 25.504V27.64C36.4214 28.76 36.9814 29.32 38.1014 29.32L44.3414 29.32V30.28L43.3814 31L38.1014 31C35.7014 31 34.5014 29.8 34.5014 27.4ZM36.4214 23.944L42.9014 23.944V21.88C42.9014 20.76 42.3414 20.2 41.2214 20.2H38.1014C36.9814 20.2 36.4214 20.76 36.4214 21.88V23.944ZM47.1307 18.856L47.3707 18.52H48.9547L51.4987 29.32H51.8347L54.8827 18.52L57.0667 18.52L60.1147 29.32H60.4507L63.0187 18.52H64.5787L64.8187 18.856L61.8907 31H58.8187L55.9627 20.728L53.1307 31H50.0587L47.1307 18.856ZM73.3241 31V14.44H84.1241V16.264H75.3401V22.12H83.4041V23.944H75.3401V31H73.3241ZM86.6756 27.4V18.52L88.5956 18.52V27.64C88.5956 28.76 89.1556 29.32 90.2756 29.32H95.0756V18.52H96.9956V31H90.2756C87.8756 31 86.6756 29.8 86.6756 27.4ZM100.738 27.592V13.24H102.658V27.784C102.658 28.888 103.218 29.472 104.338 29.536V31.192C101.938 31.192 100.738 29.992 100.738 27.592ZM106.972 27.592V13.24H108.892V27.784C108.892 28.888 109.452 29.472 110.572 29.536V31.192C108.172 31.192 106.972 29.992 106.972 27.592ZM117.628 30.568L123.052 14.44H126.364L131.788 30.568L131.5 31H129.844L128.476 26.824H120.94L119.572 31H117.916L117.628 30.568ZM121.54 25H127.876L124.996 16.264H124.42L121.54 25ZM134.09 27.4V18.52H136.01V27.64C136.01 28.76 136.57 29.32 137.69 29.32H142.49V18.52H144.41V31H137.69C135.29 31 134.09 29.8 134.09 27.4ZM148.056 27.4V22.12C148.056 19.72 149.256 18.52 151.656 18.52H156.456V13.24H158.376V31H151.656C149.256 31 148.056 29.8 148.056 27.4ZM149.976 27.64C149.976 28.76 150.536 29.32 151.656 29.32H156.456V20.2H151.656C150.536 20.2 149.976 20.76 149.976 21.88V27.64ZM162.121 16.192V13.936H164.233V16.192H162.121ZM162.217 31V18.52H164.137V31H162.217ZM167.887 27.4V14.44H169.807V18.52H174.367V20.2H169.807V27.64C169.807 28.76 170.367 29.32 171.487 29.32H174.607V30.28L173.647 31H171.487C169.087 31 167.887 29.8 167.887 27.4Z" fill="#FF5F08"/>
</svg>
